<svg xmlns="http://www.w3.org/2000/svg" xmlns:svg="http://www.w3.org/2000/svg" xmlns:xlink="http://www.w3.org/1999/xlink" id="Layer_1" width="476.444" height="479.141" x="0" y="0" enable-background="new 0 0 476.444 479.141" version="1.1" viewBox="0 0 476.444 479.141" xml:space="preserve"><g><g><g><g><g><g><g><g><g><path fill="#9C887D" d="M226.664,1022.395c-3.487,0.116-6.692,0.445-10.225,0.929 c-42.544,5.833-75.534,37.333-85.984,77.155c-11.605,0.866-22.348,2.083-32.071,3.253 c-16.98,2.044-30.816,4.103-40.9,6.972c-5.043,1.428-9.57,3.087-13.015,5.112c-3.443,2.025-6.971,5.209-6.971,10.69 s3.528,8.665,6.971,10.69c3.444,2.026,7.972,3.214,13.015,4.649c10.084,2.869,23.92,5.393,40.9,7.436 c8.49,1.022,17.48,1.952,27.422,2.789v2.788c-16.889,3.016-29.746,17.774-29.746,35.323 c0,17.696,13.112,32.018,30.211,34.859c1.941,35.597,17.895,65.419,44.154,83.196c-0.395,1.036-0.554,2.148-0.465,3.253 v31.141c-70.777,20.469-125.648,76.527-132.928,146.872c-0.257,4.099,2.859,7.63,6.959,7.887 c0.159,0.01,0.318,0.015,0.477,0.014h370.432c4.107,0.032,7.462-3.271,7.495-7.379c0.002-0.33-0.018-0.659-0.059-0.987 c-7.235-69.384-60.772-125.773-132.463-146.406v-34.859c25.667-17.759,41.652-47.233,43.69-82.267 c16.561-3.169,29.282-17.548,29.282-34.859c0-17.16-12.469-31.522-28.817-34.859v-3.718 c10.105-0.847,19.275-1.753,27.887-2.789c16.98-2.043,30.817-4.567,40.901-7.436c5.042-1.429,9.105-2.622,12.549-4.649 c3.444-2.025,7.436-5.209,7.436-10.69s-3.992-8.665-7.436-10.69s-7.507-3.677-12.549-5.112 c-10.084-2.869-23.921-4.929-40.901-6.972c-9.845-1.185-20.762-2.38-32.535-3.253 C317.005,1053.547,274.524,1020.804,226.664,1022.395z M227.594,1037.733c39.474-1.318,74.704,24.117,86.913,61.816 c-25.492-1.52-54.072-2.324-84.59-2.324c-30.334,0-58.283,0.822-83.662,2.324c10.322-31.829,37.702-56.579,72.506-61.351 C221.803,1037.781,224.594,1037.833,227.594,1037.733z M229.918,1111.169c31.872,0,61.792,1.099,87.844,2.788 c0.101,0.657,0.378,1.198,0.465,1.859c0.983,7.459,0.875,15.331,0,22.774c-26.159,1.709-56.246,2.788-88.308,2.788 c-31.873,0-61.328-1.099-87.379-2.788c-0.985-8.483-0.784-16.586,0.465-24.634 C168.946,1112.286,198.233,1111.169,229.918,1111.169z M127.201,1114.887c0.145-0.012,0.32,0.012,0.465,0 c-0.894,7.424-1.178,15.047-0.465,22.774c-9.747-0.787-18.703-1.796-26.957-2.789c-16.509-1.986-29.932-4.512-38.576-6.971 c-2.225-0.64-3.107-0.799-4.649-1.395c1.573-0.625,2.334-1.201,4.649-1.859c8.644-2.459,22.068-4.984,38.576-6.971 C108.498,1116.682,117.454,1115.673,127.201,1114.887z M332.635,1114.887c9.913,0.794,19.045,1.78,27.422,2.788 c16.51,1.987,29.468,4.512,38.113,6.971c2.202,0.626,3.113,1.261,4.648,1.859c-1.504,0.581-2.528,0.799-4.648,1.395 c-8.645,2.459-21.603,4.985-38.113,6.971c-8.377,1.008-17.509,1.995-27.422,2.789 C333.333,1130.066,333.565,1122.468,332.635,1114.887z M140.68,1156.718h14.873h163.603v4.183 c-0.044,0.464-0.044,0.93,0,1.395v28.351v27.422v0.93c-0.078,0.617-0.078,1.241,0,1.859 c-0.758,33.285-14.762,60.278-38.112,75.759c-2.089,0.309-3.948,1.492-5.112,3.254 c-12.985,7.254-28.398,11.154-46.013,11.154c-54.525,0-89.238-38.192-89.238-92.957V1156.718z M124.877,1172.055v18.127 v17.661c-7.76-3.12-13.944-8.795-13.944-17.661S117.117,1175.174,124.877,1172.055z M334.494,1172.985 c7.445,3.196,13.478,9.04,13.478,17.661c0,8.622-6.033,14.464-13.478,17.662v-17.662V1172.985z M384.226,1214.815 c-0.162,0.147-0.317,0.303-0.465,0.465c-3.186,1.043-5.279,4.089-5.113,7.437v78.083c0,9.907,8.217,18.127,18.127,18.127 h40.437v171.97c0.142,4.107,3.588,7.321,7.695,7.178c3.907-0.136,7.043-3.271,7.178-7.178v-171.97h41.366 c9.909,0,18.126-8.22,18.126-18.127v-77.618c-0.142-4.107-3.588-7.321-7.695-7.178c-3.907,0.136-7.043,3.271-7.178,7.178 v77.618c0,1.926-1.328,3.254-3.253,3.254h-11.62v-81.337c0.072-4.107-3.198-7.495-7.305-7.568 c-0.511-0.009-1.023,0.035-1.525,0.131c-3.555,0.678-6.107,3.818-6.042,7.437v81.337h-14.873v-81.337 c0.072-4.107-3.198-7.495-7.305-7.568c-0.511-0.009-1.023,0.035-1.526,0.131c-3.555,0.678-6.106,3.818-6.041,7.437v81.337 h-14.409v-81.337c0.073-4.107-3.197-7.495-7.304-7.568c-0.512-0.009-1.024,0.035-1.526,0.131 c-3.555,0.678-6.106,3.818-6.042,7.437v81.337h-11.154c-1.925,0-3.254-1.323-3.254-3.254v-78.083 c0.392-4.089-2.606-7.721-6.694-8.112C385.954,1214.521,385.074,1214.592,384.226,1214.815z M184.834,1316.138 c13.37,6.124,28.453,9.76,45.084,9.76c16.631,0,31.713-3.637,45.083-9.76v35.323c0,24.436-20.405,46.478-45.083,46.478 c-25.011,0-45.084-19.686-45.084-44.154v-4.648c0.121-0.77,0.121-1.554,0-2.324V1316.138z M170.426,1357.969 c2.291,30.58,28.047,54.845,59.493,54.845c31.016,0,55.747-24.995,59.027-54.845c5.29,1.623,10.31,3.543,15.337,5.578 v74.83h-148.73v-75.295C160.346,1361.147,165.407,1359.525,170.426,1357.969z M140.68,1370.053v72.042l-30.676,40.436 H54.23C62.388,1434.027,95.041,1393.354,140.68,1370.053z M319.156,1370.518c45.751,23.505,77.923,64.216,85.985,112.013 h-56.703l-29.282-39.506V1370.518z M150.905,1452.785h157.096l23.239,29.746H127.201L150.905,1452.785z" transform="translate(0,-1020.3622) matrix(1.0334916,0,0,1.0334916,51.387664,67.111668) translate(-12.012541,-99.016257) matrix(0.9661335,0,0,0.9661335,-25.636368,130.2799) translate(-11.995874,-98.029718) matrix(1.0004822,0,0,1.0004822,0.00849491,-0.49152954) matrix(1.0027872,0,0,1.0027872,-2.0816966,-2.8701298) matrix(0.99884813,0,0,0.99884813,-35.40757,1.1694618)"/></g></g></g></g></g></g></g></g></g></svg>