<svg width="20" height="20" xmlns="http://www.w3.org/2000/svg">

 <g>
  <title>background</title>
  <rect fill="none" id="canvas_background" height="22" width="22" y="-1" x="-1"/>
 </g>
 <g>
  <title>Layer 1</title>
  <path stroke="null" fill="#FFAC8D" id="svg_1" d="m19.979592,8.169322l0,0.678668c0,0.562234 -0.387176,1.018003 -0.864796,1.018003l-0.288265,0l-0.940934,7.753279c-0.12172,1.00303 -0.851464,1.74808 -1.712188,1.74808l-13.142736,0c-0.860724,0 -1.590468,-0.745051 -1.712224,-1.74808l-0.940898,-7.753279l-0.288265,0c-0.47762,0 -0.864796,-0.455768 -0.864796,-1.018003l0,-0.678668c0,-0.562234 0.387176,-1.018003 0.864796,-1.018003l2.426509,0l3.847621,-6.227674c0.374565,-0.606221 1.09566,-0.7403 1.610718,-0.299378c0.515022,0.440922 0.628887,1.289809 0.254322,1.896073l-2.861141,4.630979l8.469451,0l-2.861141,-4.631022c-0.374565,-0.606221 -0.260664,-1.45515 0.254358,-1.896073c0.51495,-0.440922 1.236154,-0.306885 1.610718,0.299378l3.847585,6.227717l2.426509,0c0.47762,0 0.864796,0.455768 0.864796,1.018003zm-9.512755,7.465353l0,-4.750679c0,-0.562234 -0.387176,-1.018003 -0.864796,-1.018003s-0.864796,0.455768 -0.864796,1.018003l0,4.750679c0,0.562234 0.387176,1.018003 0.864796,1.018003s0.864796,-0.455768 0.864796,-1.018003zm4.035714,0l0,-4.750679c0,-0.562234 -0.387176,-1.018003 -0.864796,-1.018003s-0.864796,0.455768 -0.864796,1.018003l0,4.750679c0,0.562234 0.387176,1.018003 0.864796,1.018003s0.864796,-0.455768 0.864796,-1.018003zm-8.071429,0l0,-4.750679c0,-0.562234 -0.387176,-1.018003 -0.864796,-1.018003s-0.864796,0.455768 -0.864796,1.018003l0,4.750679c0,0.562234 0.387176,1.018003 0.864796,1.018003s0.864796,-0.455768 0.864796,-1.018003z"/>
 </g>
</svg>