<svg height="512pt" viewBox="-49 0 512 512.00002" width="512pt" xmlns="http://www.w3.org/2000/svg"><path d="m184 0h-28.519531c-25.894531 0-48.40625 14.714844-59.648438 36.214844-3.339843-6.390625-7.714843-12.28125-13.085937-17.441406-3.023438-2.910157-7.839844-2.816407-10.75.210937s-2.816406 7.84375.210937 10.753906c10.3125 9.910157 15.992188 23.246094 15.992188 37.546875v20.914063h-20.914063c-28.714844 0-52.078125-23.363281-52.078125-52.078125v-20.914063h20.914063c7.234375 0 14.226562 1.453125 20.792968 4.316407 3.851563 1.675781 8.328126-.082032 10.007813-3.933594 1.679687-3.847656-.078125-8.328125-3.929687-10.007813-8.492188-3.703125-17.535157-5.582031-26.871094-5.582031h-28.515625c-4.203125 0-7.605469 3.40625-7.605469 7.605469v28.515625c0 20.972656 9.648438 39.726562 24.734375 52.078125h-17.128906c-4.203125 0-7.605469 3.402343-7.605469 7.601562v28.519531c0 20.96875 9.648438 39.726563 24.734375 52.074219h-17.128906c-4.203125 0-7.605469 3.40625-7.605469 7.605469v28.515625c0 20.972656 9.648438 39.730469 24.734375 52.078125h-17.128906c-4.203125 0-7.605469 3.402344-7.605469 7.605469v28.515625c0 37.101562 30.183594 67.285156 67.285156 67.285156h20.914063v136.394531c0 4.199219 3.402343 7.605469 7.601562 7.605469 4.203125 0 7.605469-3.40625 7.605469-7.605469v-136.390625h20.914062c37.101563 0 67.285157-30.183594 67.285157-67.285156v-28.519531c0-4.199219-3.40625-7.601563-7.605469-7.601563h-17.128906c15.085937-12.351562 24.734375-31.105468 24.734375-52.078125v-28.515625c0-4.199218-3.40625-7.605468-7.605469-7.605468h-17.128906c15.085937-12.347657 24.734375-31.105469 24.734375-52.074219v-28.519531c0-4.203126-3.40625-7.605469-7.605469-7.605469h-17.128906c15.085937-12.347657 24.734375-31.105469 24.734375-52.078125v-28.515625c0-4.199219-3.40625-7.605469-7.605469-7.605469zm-88.199219 279.804688h17.128907c-7.039063 5.761718-12.886719 12.929687-17.128907 21.0625-4.242187-8.132813-10.085937-15.300782-17.128906-21.0625zm0-88.199219h17.128907c-7.039063 5.765625-12.886719 12.929687-17.128907 21.0625-4.242187-8.132813-10.085937-15.296875-17.128906-21.0625zm0-88.199219h17.128907c-7.039063 5.765625-12.886719 12.929688-17.128907 21.0625-4.242187-8.132812-10.085937-15.296875-17.128906-21.0625zm-80.59375 20.914062v-20.914062h20.914063c28.714844 0 52.078125 23.363281 52.078125 52.078125v20.914063h-20.914063c-28.714844 0-52.078125-23.363282-52.078125-52.078126zm0 88.199219v-20.914062h20.914063c28.714844 0 52.078125 23.363281 52.078125 52.074219v20.914062h-20.914063c-28.714844 0-52.078125-23.359375-52.078125-52.074219zm0 88.199219v-20.914062h20.914063c28.714844 0 52.078125 23.359374 52.078125 52.074218v20.914063h-20.914063c-28.714844 0-52.078125-23.359375-52.078125-52.074219zm161.191407 0c0 28.714844-23.363282 52.074219-52.078126 52.074219h-20.914062v-20.914063c0-28.714844 23.359375-52.074218 52.074219-52.074218h20.917969zm0-88.199219c0 28.714844-23.363282 52.074219-52.078126 52.074219h-20.914062v-20.914062c0-28.710938 23.359375-52.074219 52.074219-52.074219h20.917969zm0-88.199219c0 28.714844-23.363282 52.078126-52.078126 52.078126h-20.914062v-20.914063c0-28.714844 23.359375-52.078125 52.074219-52.078125h20.917969zm0-88.199218c0 28.714844-23.363282 52.078125-52.078126 52.078125h-20.914062v-20.914063c0-28.714844 23.359375-52.078125 52.074219-52.078125h20.917969zm0 0"/><path d="m414.003906 124.320312v-28.515624c0-4.203126-3.40625-7.605469-7.605468-7.605469h-28.519532c-25.917968 0-48.445312 14.738281-59.679687 36.269531-11.234375-21.53125-33.761719-36.269531-59.679688-36.269531h-28.519531c-4.199219 0-7.601562 3.402343-7.601562 7.605469v28.515624c0 20.972657 9.648437 39.726563 24.730468 52.078126h-17.128906c-4.199219 0-7.601562 3.402343-7.601562 7.601562v28.519531c0 20.96875 9.648437 39.726563 24.730468 52.074219h-17.128906c-4.199219 0-7.601562 3.40625-7.601562 7.605469v28.515625c0 37.101562 30.183593 67.285156 67.28125 67.285156h20.914062v136.394531c0 4.199219 3.40625 7.605469 7.605469 7.605469s7.605469-3.40625 7.605469-7.605469v-136.390625h20.914062c37.101562 0 67.285156-30.183594 67.285156-67.285156v-28.519531c0-4.199219-3.40625-7.601563-7.605468-7.601563h-17.078126c5.007813-4.097656 9.464844-8.945312 13.1875-14.453125 2.347657-3.480469 1.433594-8.207031-2.046874-10.558593-3.480469-2.347657-8.207032-1.433594-10.554688 2.046874-9.714844 14.378907-25.859375 22.964844-43.1875 22.964844h-20.914062v-20.917968c0-28.710938 23.359374-52.074219 52.074218-52.074219h20.914063v20.914062c0 2.664063-.199219 5.332031-.601563 7.9375-.632812 4.152344 2.21875 8.03125 6.367188 8.667969 4.152344.636719 8.03125-2.214844 8.667968-6.367188.515626-3.363281.777344-6.808593.777344-10.238281v-28.519531c0-4.199219-3.40625-7.601562-7.605468-7.601562h-17.128907c15.085938-12.351563 24.734375-31.105469 24.734375-52.078126zm-36.125-20.914062h20.914063v20.914062c0 28.714844-23.359375 52.078126-52.074219 52.078126h-20.914062v-20.914063c0-28.714844 23.359374-52.078125 52.074218-52.078125zm-140.273437 20.914062v-20.914062h20.914062c28.714844 0 52.074219 23.363281 52.074219 52.078125v20.914063h-20.914062c-28.710938 0-52.074219-23.363282-52.074219-52.078126zm0 88.199219v-20.914062h20.914062c28.714844 0 52.074219 23.363281 52.074219 52.074219v20.914062h-20.914062c-28.710938 0-52.074219-23.359375-52.074219-52.074219zm0 88.199219v-20.914062h20.914062c28.714844 0 52.074219 23.359374 52.074219 52.074218v20.914063h-20.914062c-28.710938 0-52.074219-23.359375-52.074219-52.074219zm161.1875 0c0 28.714844-23.359375 52.074219-52.074219 52.074219h-20.914062v-20.914063c0-28.714844 23.359374-52.074218 52.074218-52.074218h20.914063zm-63.464844-20.914062c-7.042969 5.761718-12.886719 12.929687-17.128906 21.0625-4.242188-8.132813-10.085938-15.300782-17.128907-21.0625zm-17.128906-67.136719c-4.242188-8.132813-10.085938-15.296875-17.128907-21.0625h34.257813c-7.042969 5.765625-12.886719 12.929687-17.128906 21.0625zm0 0"/></svg>