<svg height="512pt" viewBox="0 -68 512.01977 512" width="512pt" xmlns="http://www.w3.org/2000/svg"><path d="m0 213.363281c-.0664062 56.316407 29.132812 108.625 77.101562 138.132813 47.972657 29.503906 107.828126 31.96875 158.058594 6.507812 69.59375 30.949219 150.796875 18.976563 208.496094-30.738281 57.699219-49.71875 81.542969-128.257813 61.21875-201.660156-1.230469-4.433594-4.246094-8.160157-8.328125-10.289063-4.167969-2.203125-9.054687-2.605468-13.527344-1.109375l-143.570312 47.957031c-.265625.058594-.523438 0-.785157.09375l-20.769531 6.824219c-9.640625-34.011719-30.152343-63.929687-58.402343-85.179687 5.351562-12.789063 12.203124-24.902344 20.402343-36.085938 2.679688-3.582031 2.136719-8.628906-1.242187-11.558594-3.378906-2.933593-8.449219-2.753906-11.617188.40625-10.910156 9.382813-24.558594 14.996094-38.914062 16-14.589844-32.644531-47.304688-53.378906-83.054688-52.6367182-61.566406 0-129.183594 58.0273442-133.402344 61.6640622l-.210937.1875c-.683594.621094-1.261719 1.351563-1.707031 2.160156-.121094.21875-.1875.449219-.300782.671876-.316406.679687-.542968 1.398437-.671874 2.132812-.050782.292969-.09375.574219-.121094.855469-.066406.925781.011718 1.855469.238281 2.753906v.222656.050781c.378906 1.234376 1.0625 2.355469 1.980469 3.261719.492187.523438 1.042968.984375 1.648437 1.375.253907.152344.476563.324219.742188.460938.855469.4375 1.777343.726562 2.730469.851562h.136718c15.207032 1.785157 30.179688 5.21875 44.644532 10.238281-38.496094 30.664063-60.878907 77.234376-60.773438 126.449219zm488.441406-83.15625c5.441406 19.640625 7.496094 40.066407 6.074219 60.398438-5.824219 84.265625-69.476563 153.144531-153.023437 165.585937-83.550782 12.441406-164.507813-34.898437-194.632813-113.816406l16.28125-5.246094c24.441406 62.886719 85.121094 104.203125 152.59375 103.890625h.050781c33.34375-.117187 65.835938-10.546875 93.011719-29.863281.804687-.269531 1.5625-.652344 2.253906-1.144531.492188-.425781.933594-.90625 1.3125-1.433594 26.386719-19.765625 46.203125-47.023437 56.867188-78.21875.289062-.445313.53125-.921875.726562-1.414063.074219-.382812.121094-.773437.136719-1.160156 5.171875-16.046875 7.796875-32.804687 7.773438-49.664062-.03125-14.300782-1.9375-28.53125-5.667969-42.335938zm-147.390625 49.226563c-.210937 1.597656-.570312 3.171875-1.074219 4.703125-.179687.605469-.433593 1.210937-.621093 1.707031-1.828125 4.402344-4.839844 8.214844-8.695313 11.015625l-.898437.675781c-8.71875 5.730469-20.03125 5.660156-28.679688-.179687l-.71875-.503907c-1.105469-.902343-2.136719-1.890624-3.078125-2.960937zm114.980469-38.167969c3.140625 12.03125 4.746094 24.417969 4.769531 36.855469-.011719 12.597656-1.664062 25.144531-4.914062 37.316406l-98.230469-31.890625c.480469-2.53125.726562-5.101563.742188-7.679687 0-.675782-.082032-1.355469-.117188-2.03125zm-48.523438 149.417969-61.539062-84.652344c1.984375-2.015625 3.761719-4.234375 5.296875-6.613281l99.292969 32.222656c-9.15625 22.988281-23.964844 43.292969-43.050782 59.042969zm-107.867187-75.042969c2.445313.976563 4.976563 1.726563 7.558594 2.234375v105.773438c-24.847657-1.277344-48.957031-8.898438-70.023438-22.136719zm24.625 2.160156c2.566406-.527343 5.078125-1.289062 7.503906-2.277343l61.96875 85.21875c-20.820312 13.433593-44.742187 21.289062-69.472656 22.8125zm-44.433594-18.277343c1.59375 2.453124 3.429688 4.742187 5.480469 6.824218l-62.003906 85.238282c-19.550782-15.78125-34.679688-36.363282-43.910156-59.730469zm-34.761719-125.253907c-.699218-.417969-1.339843-.921875-2.050781-1.332031-2.320312-1.375-4.886719-2.609375-7.386719-3.890625 4.523438-.6875 8.984376-1.726563 13.34375-3.113281-1.398437 2.78125-2.6875 5.554687-3.90625 8.335937zm-191.070312-7.363281c82.277344-21.335938 102.996094-13.894531 124.722656-6.035156 7.925782 3.066406 16.089844 5.492187 24.40625 7.253906.332032.070312.648438.101562.980469.171875-15.375 16.214844-36.699219 25.457031-59.042969 25.597656-19.074218-.042969-37.863281-4.648437-54.800781-13.421875-11.738281-5.410156-23.859375-9.945312-36.265625-13.566406zm154.453125-15.191406c-.675781-.117188-1.324219-.179688-2.015625-.316406-7.476562-1.609376-14.816406-3.808594-21.945312-6.578126-23.210938-8.421874-45.484376-16.417968-124.757813 3.046876 23.953125-15.035157 56.027344-30.769532 85.332031-30.769532 25.878906-.921875 50.199219 12.351563 63.421875 34.617188zm-125.066406 44.375c19.113281 9.714844 40.238281 14.808594 61.679687 14.871094 27.382813-.136719 53.484375-11.609376 72.097656-31.691407 5.945313 2.382813 11.714844 5.179688 17.265626 8.371094 1.441406.855469 2.753906 1.816406 4.164062 2.695313-1.707031 4.832031-3.160156 9.234374-4.269531 13.050781-2.640625-1.386719-5.820313-1.265625-8.355469.3125-2.53125 1.578125-4.035156 4.382812-3.957031 7.367187-3.699219-.101562-7.03125 2.21875-8.21875 5.722656-.714844 2.148438-.546875 4.492188.464843 6.519532 1.015626 2.023437 2.789063 3.5625 4.9375 4.277344l8.746094 2.917968 2.917969 8.746094c1.328125 3.929688 5.300781 6.324219 9.394531 5.65625 4.09375-.664062 7.101563-4.195312 7.109375-8.34375h.105469c4.1875.003906 7.757812-3.035156 8.429688-7.167969.667968-4.132812-1.761719-8.144531-5.734376-9.464843l-2.40625-.800782c.742188-3.175781 2.449219-9.882812 5.339844-18.464844 23.5 18.917969 40.488282 44.71875 48.589844 73.777344l-14.078125 4.644532-145.957031 47.007812c-4.484375 1.449219-8.1875 4.671875-10.238282 8.917969-2.023437 4.148437-2.234374 8.953125-.582031 13.261719 16.007813 42.039062 45.960938 77.308593 84.847657 99.914062-17.023438 6.828125-35.203126 10.304688-53.546876 10.242188-63.402343.050781-119.480468-41.117188-138.433593-101.621094-18.949219-60.503906 3.621093-126.304688 55.722656-162.433594zm0 0"/><path d="m41.609375 221.964844c-4.675781.585937-7.992187 4.847656-7.40625 9.523437 7.472656 45.871094 38.824219 84.285157 82.269531 100.804688.957032.351562 1.972656.53125 2.996094.535156 4.128906.007813 7.671875-2.945313 8.410156-7.011719.734375-4.0625-1.546875-8.074218-5.417968-9.515625-37.523438-14.269531-64.667969-47.359375-71.328126-86.945312-.59375-4.667969-4.855468-7.976563-9.523437-7.390625zm0 0"/><path d="m51.199219 196.296875c0 4.710937-3.820313 8.53125-8.53125 8.53125-4.714844 0-8.535157-3.820313-8.535157-8.53125 0-4.714844 3.820313-8.535156 8.535157-8.535156 4.710937 0 8.53125 3.820312 8.53125 8.535156zm0 0"/></svg>