<svg xmlns="http://www.w3.org/2000/svg" width="367pt" height="367pt" viewBox="0 -51 367.33 367"><path fill="#e57e25" d="m225.046875 127.261719c-6.9375-31.207031-26.691406-58.054688-54.417969-73.96875-5.628906-3.28125-11.535156-6.058594-17.65625-8.289063l-101.179687 11.578125c-51.140625 33.257813-66.976563 100.921875-35.90625 153.421875 31.066406 52.503906 98 71.183594 151.765625 42.355469h.0625zm0 0"/><path d="m227.765625 158.328125c-3.496094 0-6.328125-2.828125-6.328125-6.324219 0-.589844.007812-1.175781-.042969-1.757812-.285156-3.484375 2.3125-6.539063 5.789063-6.828125 3.585937-.214844 6.546875 2.3125 6.828125 5.789062.074219.929688.082031 1.863281.082031 2.796875 0 3.496094-2.828125 6.324219-6.328125 6.324219zm0 0"/><path fill="#24ae5f" d="m170.820312 88.726562c-.425781 0-.851562-.042968-1.265624-.125-1.644532-.335937-3.089844-1.3125-4.015626-2.710937-.925781-1.402344-1.257812-3.113281-.921874-4.757813 2.996093-13.347656 7.585937-26.289062 13.675781-38.539062-6.796875 2.183594-13.910157 3.226562-21.046875 3.085938-2.261719-.035157-4.332032-1.273438-5.433594-3.25-1.097656-1.972657-1.0625-4.386719.097656-6.324219 1.164063-1.941407 3.269532-3.117188 5.53125-3.082031 12.527344.503906 24.773438-3.816407 34.210938-12.066407 2.34375-2.402343 6.152344-2.5625 8.6875-.359375 2.53125 2.199219 2.90625 5.996094.851562 8.648438-11.523437 16.394531-19.730468 34.878906-24.167968 54.417968-.597657 2.949219-3.195313 5.066407-6.203126 5.0625zm0 0"/><path d="m294.589844 224.832031c-2.027344 0-4-.980469-5.191406-2.832031l-.121094-.191406c-1.898438-2.933594-1.050782-6.851563 1.882812-8.742188 2.933594-1.898437 6.859375-1.058594 8.742188 1.882813 1.898437 2.9375 1.113281 6.945312-1.820313 8.84375-1.089843.699219-2.300781 1.039062-3.492187 1.039062zm0 0"/><path d="m336.046875 167.945312c-1.011719 0-2.039063-.246093-2.996094-.777343l-.125-.070313c-3.066406-1.679687-4.183593-5.527344-2.496093-8.589844 1.679687-3.0625 5.535156-4.167968 8.589843-2.496093 3.0625 1.679687 4.242188 5.5625 2.558594 8.628906-1.15625 2.097656-3.304687 3.304687-5.53125 3.304687zm0 0"/><path fill="#f9eab0" d="m341.664062 126.140625c.03125 12.125-1.894531 24.175781-5.691406 35.691406l-84.855468-27.546875c.253906-.632812.507812-1.265625.695312-1.898437.847656-2.550781 1.273438-5.222657 1.265625-7.910157 0-1.980468-.234375-3.957031-.695313-5.882812l83.589844-27.84375.125-.0625c3.695313 11.457031 5.570313 23.417969 5.566406 35.453125zm0 0"/><path fill="#f5efca" d="m335.972656 161.558594c-7.5 22.8125-21.976562 42.6875-41.382812 56.824218l-52.964844-72.832031c.316406-.253906.632812-.445312.949219-.699219 3.78125-2.757812 6.738281-6.5 8.542969-10.820312zm0 0"/><path fill="#f9eab0" d="m294.589844 218.382812c-19.402344 14.183594-42.789063 21.867188-66.820313 21.957032v-90.613282c4.921875-.046874 9.726563-1.496093 13.855469-4.175781zm0 0"/><path fill="#f5efca" d="m227.769531 149.726562v90.613282h-.570312c-23.90625.050781-47.222657-7.433594-66.632813-21.390625l.253906-.378907 53.027344-72.894531c4.09375 2.632813 8.859375 4.039063 13.730469 4.050781zm0 0"/><path fill="#f9eab0" d="m213.847656 145.675781-53.027344 72.894531-.253906.378907c-19.765625-14.105469-34.527344-34.140625-42.140625-57.199219l85.738281-27.589844c1.808594 4.265625 4.738282 7.960938 8.480469 10.695313.386719.292969.789063.566406 1.203125.820312zm0 0"/><path fill="#f29c1f" d="m366.660156 135.824219c-4.554687 65.460937-54.027344 118.9375-118.933594 128.566406-64.910156 9.625-127.773437-27.191406-151.132812-88.511719-.582031-1.609375-.484375-3.386718.265625-4.925781s2.09375-2.707031 3.722656-3.238281l17.84375-5.695313c15.542969 46.890625 59.371094 78.550781 108.773438 78.570313h.566406c63.003906-.292969 113.921875-51.460938 113.898437-114.464844.003907-12.03125-1.875-23.988281-5.566406-35.4375l17.714844-5.945312c1.628906-.570313 3.417969-.449219 4.949219.34375 1.535156.789062 2.671875 2.175781 3.152343 3.832031 4.25 15.25 5.855469 31.113281 4.746094 46.90625zm0 0"/><path fill="#f3d55b" d="m204.164062 134.160156 4.621094-1.519531.949219-.316406 11.136719-3.667969h.0625l13.730468-4.496094 4.113282-1.328125h.0625l6.960937-2.277343 1.960938-.695313 4.617187-1.519531c.460938 1.925781.695313 3.902344.699219 5.882812.007813 2.6875-.421875 5.359375-1.265625 7.910156-.191406.632813-.445312 1.265626-.699219 1.898438-1.804687 4.320312-4.757812 8.0625-8.539062 10.820312-.316407.253907-.632813.445313-.949219.699219-4.128906 2.679688-8.9375 4.128907-13.859375 4.175781h-.191406c-4.867188-.011718-9.632813-1.417968-13.730469-4.050781-.414062-.253906-.816406-.527343-1.199219-.820312-3.742187-2.734375-6.671875-6.429688-8.480469-10.695313zm0 0"/><path fill="#f29c1f" d="m82.230469 240.589844c-.757813 0-1.511719-.136719-2.21875-.402344-32.214844-12.246094-55.460938-40.730469-61.007813-74.742188-.371094-3.433593 2.078125-6.527343 5.5-6.960937 3.425782-.429687 6.5625 1.960937 7.054688 5.378906 4.9375 29.355469 25.066406 53.898438 52.894531 64.476563 2.859375 1.078125 4.542969 4.042968 3.996094 7.054687-.542969 3.003907-3.160157 5.195313-6.21875 5.195313zm0 0"/><path fill="#f29c1f" d="m31.609375 139.347656c0 3.496094-2.832031 6.328125-6.328125 6.328125-3.492188 0-6.328125-2.832031-6.328125-6.328125 0-3.492187 2.835937-6.328125 6.328125-6.328125 3.496094 0 6.328125 2.835938 6.328125 6.328125zm0 0"/><path fill="#d25627" d="m177.144531 95.054688c-.675781-.003907-1.351562-.113282-1.996093-.328126l-18.984376-6.328124c-3.320312-1.105469-5.113281-4.695313-4.007812-8.015626 1.105469-3.316406 4.691406-5.113281 8.011719-4.007812l18.984375 6.328125c2.980468.957031 4.8125 3.949219 4.308594 7.039063-.5 3.089843-3.183594 5.347656-6.316407 5.3125zm0 0"/><path fill="#d25627" d="m170.820312 101.382812c-2.726562 0-5.144531-1.742187-6.007812-4.328124l-6.324219-18.984376c-.714843-2.148437-.230469-4.511718 1.269531-6.207031 1.5-1.691406 3.792969-2.457031 6.011719-2 2.21875.453125 4.023438 2.054688 4.738281 4.203125l6.328126 18.984375c.648437 1.929688.324218 4.058594-.871094 5.707031-1.191406 1.652344-3.109375 2.628907-5.144532 2.625zm0 0"/><path fill="#4fba6f" d="m158.164062 38.105469s-.253906.441406-.824218 1.265625c-3.972656-.066406-7.933594-.488282-11.832032-1.265625-31.636718-6.328125-31.636718-25.308594-139.207031 6.328125 0 0 50.621094-44.292969 94.914063-44.292969 25.097656-.648437 47.890625 14.550781 56.949218 37.964844zm0 0"/><path fill="#71c285" d="m157.339844 39.371094c-12.710938 18.585937-33.613282 29.898437-56.125 30.371094-37.964844 0-44.292969-18.980469-94.914063-25.308594 107.570313-31.636719 107.570313-12.65625 139.207031-6.328125 3.898438.777343 7.859376 1.199219 11.832032 1.265625zm0 0"/></svg>