<svg xmlns="http://www.w3.org/2000/svg" width="280pt" height="280pt" viewBox="0 -40 280.098 280"><path d="m257.070312 116.261719c1.90625-7.132813 2.871094-14.480469 2.878907-21.863281-.015625-7.289063-.953125-14.542969-2.796875-21.597657l-57.265625 19.109375c0 .394532.070312.796875.070312 1.1875-.007812 1.511719-.15625 3.015625-.433593 4.5zm0 0"/><path d="m95.085938 125.886719c5.40625 13.691406 14.269531 25.75 25.726562 34.992187l36.324219-49.9375c-1.203125-1.21875-2.28125-2.558594-3.210938-4zm0 0"/><path d="m169.960938 117.691406c-1.515626-.296875-2.996094-.734375-4.429688-1.304687l-36.597656 50.304687c12.34375 7.753906 26.46875 12.21875 41.027344 12.96875zm0 0"/><path d="m253.949219 125.753906-58.171875-18.875c-.902344 1.390625-1.941406 2.6875-3.105469 3.875l36.054687 49.59375c11.183594-9.226562 19.859376-21.125 25.222657-34.59375zm0 0"/><path d="m165.960938 105.359375.414062.292969c5.066406 3.421875 11.691406 3.460937 16.804688.105468l.5-.394531c2.257812-1.640625 4.023437-3.875 5.097656-6.453125.109375-.277344.261718-.628906.363281-1 .296875-.898437.507813-1.820312.632813-2.753906l-25.636719 8.453125c.558593.632813 1.167969 1.21875 1.824219 1.75zm0 0"/><path d="m179.957031 117.648438v61.953124c14.488281-.890624 28.503907-5.492187 40.703125-13.363281l-36.300781-49.933593c-1.425781.582031-2.894531 1.027343-4.402344 1.34375zm0 0"/><path d="m266.628906 69.597656c2.179688 8.085938 3.296875 16.425782 3.320313 24.800782.007812 9.882812-1.53125 19.707031-4.566407 29.109374-.007812.230469-.035156.453126-.078124.675782-.117188.292968-.261719.570312-.429688.835937-6.25 18.273438-17.859375 34.246094-33.316406 45.824219-.222656.308594-.480469.585938-.769532.835938-.40625.289062-.851562.511718-1.320312.667968-15.929688 11.316406-34.96875 17.425782-54.507812 17.488282-39.53125.179687-75.078126-24.035157-89.390626-60.882813l-9.546874 3.089844c20.046874 52.628906 77.914062 80.207031 131.417968 62.636719 53.503906-17.570313 83.757813-74.085938 68.699219-128.351563zm0 0"/><path d="m116.34375 194.035156c-22.785156-13.242187-40.335938-33.898437-49.71875-58.527344-.96875-2.523437-.847656-5.335937.339844-7.769531 1.203125-2.484375 3.371094-4.371093 5.996094-5.222656l85.5-27.550781 8.25-2.71875c-4.746094-17.027344-14.699219-32.140625-28.46875-43.226563-1.691407 5.03125-2.695313 8.953125-3.128907 10.820313l1.414063.46875c2.328125.773437 3.75 3.117187 3.359375 5.535156-.386719 2.421875-2.472657 4.203125-4.921875 4.207031h-.0625c.019531 1.320313-.496094 2.59375-1.421875 3.535157-.929688.9375-2.195313 1.464843-3.515625 1.464843-2.152344 0-4.066406-1.378906-4.746094-3.417969l-1.707031-5.128906-5.128907-1.710937c-2.621093-.875-4.035156-3.707031-3.160156-6.324219.695313-2.050781 2.648438-3.410156 4.8125-3.351562-.050781-1.746094.832032-3.390626 2.316406-4.316407 1.484376-.925781 3.347657-.996093 4.898438-.179687.664062-2.234375 1.5-4.816406 2.5-7.652344-.824219-.5-1.59375-1.09375-2.441406-1.578125-3.25-1.871094-6.628906-3.507813-10.109375-4.902344-10.902344 11.761719-26.1875 18.484375-42.226563 18.566407-12.554687-.039063-24.921875-3.019532-36.117187-8.703126l-2.34375-1c-30.511719 21.171876-43.722657 59.710938-32.621094 95.152344 11.101563 35.4375 43.941406 59.550782 81.078125 59.53125 10.746094.035156 21.398438-2 31.375-6zm-101.363281-93.988281c2.761719 0 5 2.238281 5 5s-2.238281 5-5 5-5-2.238281-5-5 2.238281-5 5-5zm49.675781 81.746094c-.464844 1.242187-1.402344 2.246093-2.613281 2.796875-1.207031.546875-2.582031.59375-3.824219.125-25.453125-9.675782-43.820312-32.175782-48.199219-59.050782-.292969-2.710937 1.640625-5.15625 4.34375-5.496093 2.707031-.34375 5.1875 1.546875 5.574219 4.246093 3.902344 23.195313 19.804688 42.585938 41.789062 50.945313 2.585938.96875 3.898438 3.847656 2.929688 6.433594zm0 0"/><path d="m98.089844 16.304688c4.179687 1.625 8.480468 2.910156 12.863281 3.855468.40625.078125.78125.113282 1.179687.183594-7.746093-13.046875-21.996093-20.824219-37.160156-20.28125-17.167968 0-35.960937 9.21875-49.992187 18.027344 46.441406-11.402344 59.492187-6.71875 73.109375-1.785156zm0 0"/><path d="m74.972656 45.054688c13.089844-.082032 25.582032-5.496094 34.589844-14.996094-.195312-.035156-.378906-.054688-.574219-.097656-4.871093-1.035157-9.652343-2.457032-14.296875-4.253907-12.730468-4.601562-24.867187-8.953125-73.074218 3.535157 7.269531 2.125 14.371093 4.78125 21.25 7.949218 9.921874 5.140625 20.929687 7.835938 32.105468 7.863282zm0 0"/><path d="m129.96875 65.054688c-.363281 0-.734375-.039063-1.105469-.121094-2.691406-.609375-4.382812-3.285156-3.777343-5.980469 3.8125-16.898437 10.808593-32.632813 20.789062-46.773437 1.597656-2.257813 4.707031-2.792969 6.972656-1.203126 2.253906 1.59375 2.792969 4.710938 1.199219 6.96875-9.222656 13.0625-15.6875 27.601563-19.207031 43.210938-.523438 2.320312-2.585938 3.898438-4.871094 3.898438zm0 0"/><path d="m120.007812 31.179688c-3.71875 0-7.460937-.410157-11.148437-1.246094-2.691406-.609375-4.378906-3.289063-3.765625-5.984375.613281-2.691407 3.289062-4.386719 5.980469-3.765625 12.5625 2.84375 25.875-.476563 35.617187-8.90625 2.089844-1.800782 5.242188-1.578125 7.050782.511718 1.804687 2.085938 1.582031 5.246094-.507813 7.050782-9.277344 8.027344-21.15625 12.339844-33.226563 12.339844zm0 0"/></svg>